<svg width="28" height="30" viewBox="0 0 28 30" fill="none" xmlns="http://www.w3.org/2000/svg">
<path fill-rule="evenodd" clip-rule="evenodd" d="M6.34633 10.3334C4.13862 10.3334 2.33301 12.139 2.33301 14.3467V18.4477C3.05655 18.1594 3.84415 18 4.66634 18C8.16529 18 10.9997 20.8344 10.9997 24.3334C10.9997 25.4102 10.7261 26.4383 10.2355 27.3334H21.653C23.8607 27.3334 25.6663 25.5277 25.6663 23.32V22.7334H24.133C22.2536 22.7334 20.4294 21.3591 20.257 19.329C20.1493 18.1794 20.587 17.1054 21.3454 16.36C22.0276 15.6642 22.9628 15.2667 23.973 15.2667H25.6663V14.3467C25.6663 12.139 23.8607 10.3334 21.653 10.3334H6.34633ZM0.333008 14.3467C0.333008 11.0344 3.03404 8.33337 6.34633 8.33337H21.653C24.9653 8.33337 27.6663 11.0344 27.6663 14.3467V16.2667C27.6663 16.819 27.2186 17.2667 26.6663 17.2667H23.973C23.4943 17.2667 23.0732 17.4523 22.7695 17.7643L22.7515 17.7823C22.3968 18.1286 22.1986 18.6216 22.2485 19.1452L22.2496 19.157L22.2496 19.157C22.3201 20.0036 23.1342 20.7334 24.133 20.7334H26.6663C27.2186 20.7334 27.6663 21.1811 27.6663 21.7334V23.32C27.6663 26.6323 24.9653 29.3334 21.653 29.3334H8.17301C7.75257 29.3334 7.37704 29.0704 7.23328 28.6753C7.08953 28.2802 7.20826 27.8374 7.5304 27.5672C7.85433 27.2955 8.13987 26.9579 8.36256 26.5762L8.37517 26.5551C8.77232 25.9111 8.99967 25.1459 8.99967 24.3334C8.99967 21.939 7.06072 20 4.66634 20C3.65096 20 2.70843 20.3558 1.95632 20.9554C1.65597 21.1948 1.24505 21.241 0.899022 21.0743C0.552991 20.9076 0.333008 20.5575 0.333008 20.1734V14.3467Z" fill="#A4A4A4"/>
<path fill-rule="evenodd" clip-rule="evenodd" d="M16.7997 4.26675C16.7997 3.19006 15.7236 2.45088 14.7274 2.82847L4.14023 6.82867C3.05121 7.24094 2.33301 8.28069 2.33301 9.45344V15.5467C2.33301 16.099 1.88529 16.5467 1.33301 16.5467C0.780723 16.5467 0.333008 16.099 0.333008 15.5467V9.45344C0.333008 7.45302 1.56172 5.66594 3.43244 4.9581L14.0186 0.958298C16.3291 0.082551 18.7997 1.79678 18.7997 4.26675V9.33341C18.7997 9.88569 18.352 10.3334 17.7997 10.3334C17.2474 10.3334 16.7997 9.88569 16.7997 9.33341V4.26675Z" fill="#A4A4A4"/>
</svg>
